<?xml version="1.0" encoding="utf-8"?>
<!-- Generator: Adobe Illustrator 16.0.4, SVG Export Plug-In . SVG Version: 6.00 Build 0)  -->
<!DOCTYPE svg PUBLIC "-//W3C//DTD SVG 1.1//EN" "http://www.w3.org/Graphics/SVG/1.1/DTD/svg11.dtd">
<svg version="1.1" id="Layer_1" xmlns="http://www.w3.org/2000/svg" xmlns:xlink="http://www.w3.org/1999/xlink" x="0px" y="0px"
	 width="90.5px" height="65.6px" viewBox="0 0 90.5 65.6" enable-background="new 0 0 90.5 65.6" xml:space="preserve">
<g>
	<g>
		<path d="M107.6,9.6h11.1c4.3,0,8.7,2,8.7,7.2c0,3.2-2,5.4-5,6.2v0.1c3.6,0.4,6.2,3.2,6.2,6.9c0,6.2-5.4,8.1-10.8,8.1h-10.3V9.6z
			 M112.7,21.2h4.6c3.4,0,5.1-1.5,5.1-3.6c0-2.5-1.7-3.7-5.5-3.7h-4.2V21.2z M112.7,33.7h4.7c2.6,0,6.2-0.4,6.2-4.2c0-3-1.9-4-6-4
			h-4.9V33.7z"/>
	</g>
	<g>
		<path d="M132.5,9.6h9.9c5.5,0,10.6,1.8,10.6,8.2c0,4.1-2.4,7.1-6.6,7.7l7.6,12.6h-6.1L141.2,26h-3.7v12.1h-5.1V9.6z M141.5,21.7
			c2.9,0,6.2-0.2,6.2-3.9c0-3.4-3.1-3.8-5.8-3.8h-4.4v7.7H141.5z"/>
	</g>
	<g>
		<path d="M167.8,9.6h4.4l12.3,28.5h-5.8l-2.7-6.5h-12.4l-2.6,6.5h-5.7L167.8,9.6z M174.3,27.2l-4.4-11.6l-4.5,11.6H174.3z"/>
	</g>
	<g>
		<path d="M188,9.6h5.1v21.9h0.1l14.1-21.9h6.4v28.5h-5.1V16.9h-0.1l-13.8,21.2H188V9.6z"/>
	</g>
	<g>
		<path d="M238.5,16.3c-2.1-2.2-4-2.8-6-2.8c-5.9,0-9.8,4.5-9.8,10.2c0,6.1,3.9,10.6,9.8,10.6c2.3,0,4.5-1,6.4-3.5l4.2,3
			c-2.6,3.5-6.4,5.1-10.6,5.1c-8.8,0-15.1-6-15.1-14.9c0-9.1,6.3-15.1,15.1-15.1c3.9,0,7.2,1.2,10,4.5L238.5,16.3z"/>
	</g>
	<g>
		<path d="M260.4,8.9c8.9-0.2,15.2,5.8,15.2,14.9c0,8.9-6.3,14.9-15.2,15c-8.8,0-15.1-6-15.1-14.9C245.4,14.8,251.6,8.9,260.4,8.9z
			 M260.5,34.2c5.9,0,9.8-4.5,9.8-10.6c0-5.7-3.9-10.2-9.8-10.2c-5.9,0-9.8,4.5-9.8,10.2C250.7,29.7,254.6,34.2,260.5,34.2z"/>
	</g>
	<g>
		<path d="M279.5,9.6h2.8l12.6,11l12.7-11h2.7v28.5h-4.8V19l-10.5,8.7l0,0L284.3,19v19.1h-4.8V9.6z"/>
	</g>
	<g>
		<path d="M317.9,31.9c1.7,0,3.1,1.4,3.1,3.1c0,1.7-1.4,3.1-3.1,3.1c-1.7,0-3.1-1.4-3.1-3.1C314.8,33.3,316.2,31.9,317.9,31.9z
			 M317.9,37.6c1.5,0,2.7-1.2,2.7-2.7s-1.2-2.7-2.7-2.7c-1.5,0-2.7,1.2-2.7,2.7S316.5,37.6,317.9,37.6z M317.3,36.8h-0.5v-3.6h1.4
			c0.8,0,1.1,0.4,1.1,1c0,0.7-0.4,0.9-0.9,1l1.1,1.6H319l-1.1-1.6h-0.6V36.8z M317.3,34.8h0.6c0.5,0,1,0,1-0.6
			c0-0.5-0.4-0.6-0.8-0.6h-0.8V34.8z"/>
	</g>
</g>
<g>
	<path fill="#5FBFED" d="M0,42.2c2-2,4.1-4.1,6.1-6.1c1.8-1.8,3.5-3.5,5.3-5.3c0-2.9,0-5.7,0-8.6c0-2.8,0-5.7,0-8.5
		c-1.8,1.7-3.5,3.3-5.3,5c-2,1.9-4.1,3.8-6.1,5.7c0,3,0,5.9,0,8.9C0,36.2,0,39.2,0,42.2z"/>
	<polygon fill="#F8EF88" points="22.4,20.4 11.5,13.6 11.5,30.8 	"/>
	<path fill="#B8C0E3" d="M29.8,13.2c-1.4,1-7.4,7.2-7.4,7.2l8.9,5.6l14.3-8.2c0,0-5.2-4.2-6.9-5C35.8,11.5,31.7,11.9,29.8,13.2z"/>
	<path fill="#B25490" d="M11.5,13.6L11.5,13.6C11.5,13.6,11.5,13.6,11.5,13.6z"/>
	<path fill="#55539F" d="M11.5,13.6c3.6,2.3,7.3,4.5,10.9,6.8c0,0,1.1-0.8,2.5-1.8c1.8-1.3,4.1-2.8,4.9-3.4c1.9-1.3,5.9-1.7,8.8-0.3
		c1.8,0.8,6.9,2.9,6.9,2.9c4.5-2.7,9.1-5.4,13.6-8.1c-0.8-0.5-1.7-0.9-2.5-1.4c-2.7-1.5-5.5-3-8.2-4.4c0,0-4.9-2.9-11.2-3.8
		c-4.8-0.6-10.3,0-14.9,3.9c-3.5,3-5.8,5.1-7.4,6.5C11.7,13.4,11.5,13.6,11.5,13.6z"/>
	<path fill="#EA516D" d="M0,42.2c0,0,16,4.2,31.3,13.7c0-7.4,0-15.8,0-15.8l-19.8-9.3L0,42.2z"/>
	<polygon fill="#F8B887" points="11.5,30.8 22.4,20.4 31.3,26 31.3,40.1 	"/>
	<polygon fill="#5FBFED" points="31.3,40.1 44.9,47.8 31.3,55.9 	"/>
	<polygon fill="#5FBFED" points="79,52 90.5,41.2 90.5,23.4 79,34.8 	"/>
	<polygon fill="#F8EF88" points="68.1,45.2 79,52 79,34.8 	"/>
	<path fill="#B8C0E3" d="M60.7,52.4c1.4-1,7.4-7.2,7.4-7.2l-8.9-5.6l-14.3,8.2c0,0,5.2,4.2,6.9,5C54.7,54.1,58.8,53.7,60.7,52.4z"/>
	<path fill="#55539F" d="M42,61.7c0,0,15.3,9,26.1-0.2C78.5,52.5,79,52,79,52l-10.9-6.8c0,0-6,4.1-7.4,5.1c-1.9,1.3-5.9,1.7-8.8,0.3
		c-1.8-0.7-6.9-2.9-6.9-2.9l-13.6,8.1L42,61.7z"/>
	<path fill="#EA516D" d="M90.5,23.4c0,0-16-4.2-31.3-13.7c0,7.4,0,15.8,0,15.8L79,34.8L90.5,23.4z"/>
	<polygon fill="#F8B887" points="79,34.8 68.1,45.2 59.2,39.6 59.2,25.6 	"/>
	<polygon fill="#5FBFED" points="59.2,25.6 45.6,17.9 59.2,9.7 	"/>
</g>
<g>
	<path d="M108.5,54.5h-0.9V42.8h0.9V54.5z"/>
	<path d="M117.6,42.8c0,0,0.1,0.1,0.1,0.1l7.6,10.1c0-0.2,0-0.3,0-0.5v-9.8h0.7v11.7h-0.4c-0.1,0-0.2-0.1-0.3-0.2l-7.6-10.1
		c0,0.2,0,0.3,0,0.5v9.8H117V42.8h0.4C117.5,42.8,117.6,42.8,117.6,42.8z"/>
	<path d="M141.9,42.8v0.7h-4.1v11H137v-11h-4.1v-0.7H141.9z"/>
	<path d="M155.7,42.8v0.7h-6.1v4.7h5.1v0.7h-5.1v4.9h6.1v0.7h-7V42.8H155.7z"/>
	<path d="M164.3,49.2v5.3h-0.8V42.8h3c1.3,0,2.4,0.3,3,0.8c0.7,0.5,1,1.3,1,2.3c0,0.4-0.1,0.9-0.2,1.2c-0.2,0.4-0.4,0.7-0.7,1
		c-0.3,0.3-0.6,0.5-1,0.7c-0.4,0.2-0.9,0.3-1.4,0.4c0.1,0.1,0.2,0.2,0.4,0.3l4,5h-0.7c-0.1,0-0.2,0-0.2,0c-0.1,0-0.1-0.1-0.2-0.2
		l-3.7-4.7c-0.1-0.1-0.2-0.2-0.3-0.3c-0.1,0-0.3-0.1-0.5-0.1H164.3z M164.3,48.6h2c0.5,0,1-0.1,1.4-0.2s0.8-0.3,1-0.5
		c0.3-0.2,0.5-0.5,0.6-0.8s0.2-0.7,0.2-1.1c0-0.8-0.3-1.4-0.8-1.9c-0.5-0.4-1.3-0.6-2.4-0.6h-2.1V48.6z"/>
	<path d="M179,42.8c0,0,0.1,0.1,0.1,0.1l7.6,10.1c0-0.2,0-0.3,0-0.5v-9.8h0.7v11.7H187c-0.1,0-0.2-0.1-0.3-0.2l-7.6-10.1
		c0,0.2,0,0.3,0,0.5v9.8h-0.7V42.8h0.4C178.9,42.8,178.9,42.8,179,42.8z"/>
	<path d="M202.6,42.8v0.7h-6.1v4.7h5.1v0.7h-5.1v4.9h6.1v0.7h-7V42.8H202.6z"/>
	<path d="M217.8,42.8v0.7h-4.1v11h-0.8v-11h-4.1v-0.7H217.8z"/>
	<path d="M224.6,54.5V42.8h3.4c0.7,0,1.2,0.1,1.7,0.2c0.5,0.1,0.9,0.3,1.2,0.6c0.3,0.3,0.6,0.6,0.7,0.9c0.2,0.4,0.2,0.8,0.2,1.3
		c0,0.3-0.1,0.6-0.2,0.9c-0.1,0.3-0.3,0.6-0.5,0.8c-0.2,0.2-0.5,0.5-0.7,0.6c-0.3,0.2-0.6,0.3-1,0.4c0.9,0.1,1.6,0.4,2.1,0.9
		s0.7,1.1,0.7,1.9c0,0.5-0.1,0.9-0.3,1.3c-0.2,0.4-0.4,0.7-0.8,1s-0.7,0.5-1.2,0.6c-0.5,0.1-1,0.2-1.7,0.2H224.6z M225.4,48.2h2.5
		c0.5,0,1-0.1,1.4-0.2c0.4-0.1,0.7-0.3,0.9-0.5c0.2-0.2,0.4-0.5,0.5-0.8c0.1-0.3,0.2-0.6,0.2-0.9c0-0.8-0.2-1.4-0.7-1.8
		c-0.5-0.4-1.3-0.6-2.3-0.6h-2.5V48.2z M225.4,48.9v4.9h2.9c1,0,1.8-0.2,2.3-0.7c0.5-0.4,0.8-1.1,0.8-1.9c0-0.4-0.1-0.7-0.2-1
		c-0.1-0.3-0.3-0.5-0.6-0.8c-0.3-0.2-0.6-0.4-1-0.5c-0.4-0.1-0.8-0.2-1.3-0.2H225.4z"/>
	<path d="M244.2,53.9c0.6,0,1.1-0.1,1.5-0.3s0.8-0.5,1.1-0.8c0.3-0.3,0.5-0.8,0.7-1.2c0.2-0.5,0.2-1,0.2-1.5v-7.2h0.8V50
		c0,0.6-0.1,1.2-0.3,1.8c-0.2,0.6-0.5,1-0.9,1.5c-0.4,0.4-0.8,0.7-1.4,1s-1.2,0.4-1.8,0.4c-0.7,0-1.3-0.1-1.8-0.4
		c-0.5-0.2-1-0.6-1.4-1c-0.4-0.4-0.7-0.9-0.9-1.5c-0.2-0.6-0.3-1.2-0.3-1.8v-7.2h0.8V50c0,0.5,0.1,1.1,0.2,1.5s0.4,0.9,0.7,1.2
		c0.3,0.3,0.7,0.6,1.1,0.8C243.2,53.8,243.7,53.9,244.2,53.9z"/>
	<path d="M257.9,49.2v5.3H257V42.8h3c1.3,0,2.4,0.3,3,0.8c0.7,0.5,1,1.3,1,2.3c0,0.4-0.1,0.9-0.2,1.2c-0.2,0.4-0.4,0.7-0.7,1
		c-0.3,0.3-0.6,0.5-1,0.7c-0.4,0.2-0.9,0.3-1.4,0.4c0.1,0.1,0.2,0.2,0.4,0.3l4,5h-0.7c-0.1,0-0.2,0-0.2,0c-0.1,0-0.1-0.1-0.2-0.2
		l-3.7-4.7c-0.1-0.1-0.2-0.2-0.3-0.3c-0.1,0-0.3-0.1-0.5-0.1H257.9z M257.9,48.6h2c0.5,0,1-0.1,1.4-0.2s0.8-0.3,1-0.5
		c0.3-0.2,0.5-0.5,0.6-0.8s0.2-0.7,0.2-1.1c0-0.8-0.3-1.4-0.8-1.9c-0.5-0.4-1.3-0.6-2.4-0.6h-2.1V48.6z"/>
	<path d="M279,42.8v0.7h-6.1v4.7h5.1v0.7h-5.1v4.9h6.1v0.7h-7V42.8H279z"/>
	<path d="M295.3,54.5h-0.7c-0.1,0-0.1,0-0.2-0.1c0,0-0.1-0.1-0.1-0.2l-1.4-3.4h-5.7l-1.4,3.4c0,0.1-0.1,0.1-0.1,0.2
		c-0.1,0-0.1,0.1-0.2,0.1h-0.6l4.8-11.7h0.8L295.3,54.5z M287.5,50.2h5.2l-2.4-5.9c0-0.1-0.1-0.2-0.1-0.3c0-0.1-0.1-0.2-0.1-0.4
		c0,0.1-0.1,0.3-0.1,0.4c0,0.1-0.1,0.2-0.1,0.3L287.5,50.2z"/>
	<path d="M305.7,53.9c0.6,0,1.1-0.1,1.5-0.3s0.8-0.5,1.1-0.8c0.3-0.3,0.5-0.8,0.7-1.2c0.2-0.5,0.2-1,0.2-1.5v-7.2h0.8V50
		c0,0.6-0.1,1.2-0.3,1.8s-0.5,1-0.9,1.5c-0.4,0.4-0.8,0.7-1.4,1c-0.5,0.2-1.2,0.4-1.8,0.4c-0.7,0-1.3-0.1-1.8-0.4
		c-0.5-0.2-1-0.6-1.4-1c-0.4-0.4-0.7-0.9-0.9-1.5c-0.2-0.6-0.3-1.2-0.3-1.8v-7.2h0.8V50c0,0.5,0.1,1.1,0.2,1.5
		c0.2,0.5,0.4,0.9,0.7,1.2c0.3,0.3,0.7,0.6,1.1,0.8C304.7,53.8,305.2,53.9,305.7,53.9z"/>
</g>
<g>
</g>
<g>
</g>
<g>
</g>
<g>
</g>
<g>
</g>
<g>
</g>
</svg>
